{
	"asset":{
		"generator":"Khronos glTF Blender I/O v4.2.57",
		"version":"2.0"
	},
	"scene":0,
	"scenes":[
		{
			"name":"Scene",
			"nodes":[
				0
			]
		}
	],
	"nodes":[
		{
			"mesh":0,
			"name":"Plane"
		}
	],
	"materials":[
		{
			"doubleSided":true,
			"name":"Material.002",
			"pbrMetallicRoughness":{
				"baseColorTexture":{
					"index":0
				},
				"metallicFactor":0,
				"roughnessFactor":0.5
			}
		}
	],
	"meshes":[
		{
			"name":"Plane",
			"primitives":[
				{
					"attributes":{
						"POSITION":0,
						"NORMAL":1,
						"TEXCOORD_0":2
					},
					"indices":3,
					"material":0
				}
			]
		}
	],
	"textures":[
		{
			"sampler":0,
			"source":0
		}
	],
	"images":[
		{
			"mimeType":"image/png",
			"name":"BlendMap",
			"uri":"BlendMap.png"
		}
	],
	"accessors":[
		{
			"bufferView":0,
			"componentType":5126,
			"count":28921,
			"max":[
				50.00010299682617,
				1.9286587238311768,
				50.00000762939453
			],
			"min":[
				-50.00626754760742,
				-3.7194294929504395,
				-50.00331497192383
			],
			"type":"VEC3"
		},
		{
			"bufferView":1,
			"componentType":5126,
			"count":28921,
			"type":"VEC3"
		},
		{
			"bufferView":2,
			"componentType":5126,
			"count":28921,
			"type":"VEC2"
		},
		{
			"bufferView":3,
			"componentType":5123,
			"count":46464,
			"type":"SCALAR"
		}
	],
	"bufferViews":[
		{
			"buffer":0,
			"byteLength":347052,
			"byteOffset":0,
			"target":34962
		},
		{
			"buffer":0,
			"byteLength":347052,
			"byteOffset":347052,
			"target":34962
		},
		{
			"buffer":0,
			"byteLength":231368,
			"byteOffset":694104,
			"target":34962
		},
		{
			"buffer":0,
			"byteLength":92928,
			"byteOffset":925472,
			"target":34963
		}
	],
	"samplers":[
		{
			"magFilter":9729,
			"minFilter":9987
		}
	],
	"buffers":[
		{
			"byteLength":1018400,
			"uri":"terrain.bin"
		}
	]
}
